HIERARCHY
ROOT Hips
{
  OFFSET 13.6774 106.653 -34.4427
  CHANNELS 6 Xposition Yposition Zposition Zrotation Xrotation Yrotation
  JOINT ToSpine
  {
    OFFSET -2.69724 7.43032 -0.144315
    CHANNELS 3 Zrotation Xrotation Yrotation
    JOINT Spine
    {
      OFFSET -0.0310711 10.7595 1.96963
      CHANNELS 3 Zrotation Xrotation Yrotation
      JOINT Spine1
      {
        OFFSET 19.9056 3.91189 0.764692
        CHANNELS 3 Zrotation Xrotation Yrotation
        JOINT Neck
        {
          OFFSET 25.9749 7.03908 -0.130764
          CHANNELS 3 Zrotation Xrotation Yrotation
          JOINT Head
          {
            OFFSET 9.52751 0.295786 -0.907742
            CHANNELS 3 Zrotation Xrotation Yrotation
            End Site
            {
              OFFSET 16.4037 0.713936 2.7358
            }
          }
        }
        JOINT LeftShoulder
        {
          OFFSET 17.7449 4.33886 11.7777
          CHANNELS 3 Zrotation Xrotation Yrotation
          JOINT LeftArm
          {
            OFFSET 0.911315 1.27913 9.80584
            CHANNELS 3 Zrotation Xrotation Yrotation
            JOINT LeftForeArm
            {
              OFFSET 28.6126 1.18197 -3.53199
              CHANNELS 3 Zrotation Xrotation Yrotation
              JOINT LeftHand
              {
                OFFSET 27.5088 0.0218783 0.327423
                CHANNELS 3 Zrotation Xrotation Yrotation
                End Site
                {
                  OFFSET 18.6038 -0.000155887 0.382096
                }
              }
            }
          }
        }
        JOINT RightShoulder
        {
          OFFSET 17.1009 2.89543 -12.2328
          CHANNELS 3 Zrotation Xrotation Yrotation
          JOINT RightArm
          {
            OFFSET 1.4228 0.178766 -10.211
            CHANNELS 3 Zrotation Xrotation Yrotation
            JOINT RightForeArm
            {
              OFFSET 28.733 1.87905 2.64907
              CHANNELS 3 Zrotation Xrotation Yrotation
              JOINT RightHand
              {
                OFFSET 27.4588 0.290562 -0.101845
                CHANNELS 3 Zrotation Xrotation Yrotation
                End Site
                {
                  OFFSET 17.8396 -0.255518 -0.000602873
                }
              }
            }
          }
        }
      }
    }
  }
  JOINT LeftUpLeg
  {
    OFFSET -5.61296 -2.22332 -10.2353
    CHANNELS 3 Zrotation Xrotation Yrotation
    JOINT LeftLeg
    {
      OFFSET 2.56703 -44.7417 -7.93097
      CHANNELS 3 Zrotation Xrotation Yrotation
      JOINT LeftFoot
      {
        OFFSET 3.16933 -46.5642 -3.96578
        CHANNELS 3 Zrotation Xrotation Yrotation
        JOINT LeftToeBase
        {
          OFFSET 0.346054 -6.02161 12.8035
          CHANNELS 3 Zrotation Xrotation Yrotation
          End Site
          {
            OFFSET 0.134235 -1.35082 5.13018
          }
        }
      }
    }
  }
  JOINT RightUpLeg
  {
    OFFSET -5.7928 -1.72406 10.6446
    CHANNELS 3 Zrotation Xrotation Yrotation
    JOINT RightLeg
    {
      OFFSET -2.57161 -44.7178 -7.85259
      CHANNELS 3 Zrotation Xrotation Yrotation
      JOINT RightFoot
      {
        OFFSET -3.10148 -46.5936 -4.03391
        CHANNELS 3 Zrotation Xrotation Yrotation
        JOINT RightToeBase
        {
          OFFSET -0.0828122 -6.13587 12.8035
          CHANNELS 3 Zrotation Xrotation Yrotation
          End Site
          {
            OFFSET -0.131328 -1.35082 5.13018
          }
        }
      }
    }
  }
}
MOTION
Frames: 8
Frame Time: 0.03333333333333333
0.0000 93.1000 0.0000 62.8452 49.6671 25.9611 -70.9957 0.7733 87.9961 136.1459 62.6434 -45.1215 10.1136 19.9458 -0.8965 -160.1597 1.8268 -180.1784 -141.9869 34.0053 157.9255 0.6471 -4.0623 -30.9980 -78.5272 36.8793 -110.9570 2.2589 8.2621 -19.7690 14.5988 -0.5968 -6.3451 -0.7813 0.0641 26.6226 -77.6664 -52.7916 90.0514 15.0685 -14.5920 41.7504 6.9476 -1.0252 1.3654 -24.4958 -0.3550 79.1966 -162.8913 73.1369 156.1085 4.6466 7.2321 -0.5789 -6.9491 -23.1904 15.3203 -28.5931 3.7824 75.1160 5.9207 65.2102 1.2801 -7.0737 -7.3501 0.8839 9.0622 -14.6435 -21.1033 
0.0000 93.1000 0.0000 61.0156 50.4263 26.8416 -70.9951 0.2776 87.9932 136.1878 60.9617 -47.9174 8.9299 19.0857 -0.8536 -159.2312 -1.3571 -178.5879 -142.1970 30.3521 157.1228 1.6017 -4.0834 -30.8647 -80.6576 34.9758 -114.0028 5.9921 7.3231 -29.3448 15.0536 -1.3507 -6.8356 -0.4806 0.3814 27.5812 -72.0666 -55.5581 90.9078 12.6173 -12.0766 39.2022 6.7776 -0.2146 1.9577 -31.0152 -0.8305 78.0355 -158.3527 76.6057 150.8835 5.5989 6.6963 -1.0801 -7.2402 -24.0052 13.4796 -22.9996 1.8992 77.1336 3.7390 57.9066 1.3007 -6.8204 -5.1810 0.2044 2.2250 7.8355 -17.2436 
0.0000 93.1000 0.0000 58.1886 49.8199 27.7833 -70.9894 -0.0981 87.9918 136.0675 60.5099 -49.2715 7.5547 18.9801 -2.4643 -161.0202 -5.1072 -176.5101 -142.8214 26.0090 156.0543 2.8373 -4.0542 -30.2814 -84.8622 32.9265 -113.8836 10.6357 9.8462 -42.5742 15.6369 -2.0930 -7.6484 0.0200 0.7336 27.1463 -66.8291 -57.9645 92.8940 7.5533 -7.8342 37.2562 6.2394 0.4580 2.9429 -34.8212 -1.9896 78.8501 -110.5726 84.4684 100.8412 5.1735 6.9855 -1.6434 -7.2145 -24.4797 10.7498 -22.7904 -0.0699 78.6439 1.5932 41.0744 4.3705 -4.9093 -1.6072 -0.3645 -11.4187 35.2345 2.6289 
0.0000 93.1000 0.0000 56.0338 46.9820 26.8570 -70.9925 0.0033 87.9908 136.1241 60.9953 -50.6370 6.0228 20.0095 -3.3590 -162.1376 -7.4891 -173.0261 -143.9849 22.8499 156.0431 2.3170 -4.2669 -29.7234 -86.1711 31.0380 -114.9188 16.2309 9.5488 -55.4346 17.2779 -1.9466 -8.4468 -0.4029 1.7594 25.8461 -65.4468 -59.7204 94.1082 6.5890 -6.7239 36.7457 6.1281 -0.0062 2.5366 -38.7824 -4.1163 82.2305 -19.2285 78.2409 5.8129 3.2418 5.9967 -1.2614 -6.9823 -23.2104 10.8622 -20.7151 -2.7022 78.2960 1.9878 35.9800 7.1827 -3.8205 2.7628 -0.2683 -9.1562 24.8930 -0.1237 
0.0000 93.1000 0.0000 57.0529 44.1055 22.7853 -70.9994 -0.1810 87.9931 135.1030 62.0687 -52.0759 5.8821 22.0252 -5.3215 -161.1196 -9.7594 -169.8050 -143.7848 19.6141 156.2130 2.3581 -3.8864 -30.1084 -85.7282 31.4043 -113.9195 19.7533 8.4839 -63.9933 19.7531 -2.1146 -8.3594 -0.7377 3.1245 23.9356 -61.1409 -59.2293 100.2586 5.5426 -4.6617 34.9504 6.3408 0.0012 2.5564 -41.1388 -6.5904 83.9934 -10.9922 70.2049 -6.5438 2.9826 2.7473 -1.3612 -5.8751 -18.8266 10.3548 -19.0041 -4.0118 80.1227 1.8046 48.3736 3.0380 -4.4426 3.4611 -0.0708 -1.1621 13.4148 -10.9240 
0.0000 93.1000 0.0000 60.0824 42.9230 18.7524 -71.0044 -0.1970 87.9939 136.1031 62.9769 -54.5097 5.5531 23.7673 -6.4836 -158.1906 -11.9037 -166.7461 -143.7385 16.6600 155.0805 2.0203 -3.1823 -31.1970 -83.9347 33.9930 -110.8609 17.6940 8.4496 -59.8743 20.5369 -1.8290 -7.7778 -1.0509 3.6723 22.1596 -57.9918 -58.1447 106.9716 3.1650 -2.1293 33.1837 6.7602 -0.2283 2.2616 -43.1032 -8.5871 86.0350 -9.8474 67.0288 -10.1847 3.7004 2.9308 -1.1377 -6.2085 -22.2110 7.6215 -18.2345 -4.8144 83.9420 7.9519 71.2627 -4.9654 -5.7681 -0.9213 0.3878 3.3384 5.2140 -14.4123 
0.0000 93.1000 0.0000 64.0739 40.9206 15.9468 -71.0024 0.1669 87.9978 139.0935 64.2466 -57.9220 6.3009 24.7997 -7.3604 -156.1411 -14.1752 -166.7945 -144.6256 14.2547 154.0884 1.9726 -2.4917 -32.2915 -82.8794 36.9558 -107.8930 14.0915 11.3517 -48.0915 19.8860 -1.4850 -6.8149 -0.9952 3.2511 20.5220 -62.7180 -58.9403 103.8564 2.7603 -1.3854 35.2093 7.2383 -0.2649 2.1375 -40.5956 -9.3389 87.2063 -8.7886 66.3735 -8.2544 6.8614 1.4925 -1.5497 -8.7754 -32.8288 7.2097 -21.5916 -5.2002 85.8456 120.8768 84.5764 -116.2492 -7.6421 -3.2818 0.6718 4.6454 1.4713 -14.0503 
0.0000 93.1000 0.0000 63.0029 40.5469 15.9344 -71.0048 -0.1751 88.0002 137.0854 65.8095 -55.3668 7.1233 25.2389 -8.0902 -154.0941 -15.0193 -164.7417 -143.5732 13.2699 153.7838 2.0337 -1.9795 -33.9955 -79.5018 37.8207 -106.8395 9.5985 13.0596 -32.2430 18.4779 -1.6816 -5.7491 -0.7079 2.5778 19.3799 -70.7932 -59.9112 97.0960 3.9731 -1.8556 39.0242 7.8511 0.1129 2.5907 -32.5686 -10.8827 85.8409 -8.5118 67.8878 -4.0036 8.3489 6.6853 -1.3241 -10.8236 -42.7052 8.0735 -26.3595 -5.0211 89.1844 161.7873 74.1604 -154.0743 -7.7298 -5.0473 0.6744 5.4461 -2.4339 -13.7518 
